<?xml version="1.0" encoding="utf-8"?>
<!-- Generator: Adobe Illustrator 22.1.0, SVG Export Plug-In . SVG Version: 6.00 Build 0)  -->
<svg version="1.1" id="Layer_2" xmlns="http://www.w3.org/2000/svg" xmlns:xlink="http://www.w3.org/1999/xlink" x="0px" y="0px"
	 viewBox="0 0 173.7 173.7" enable-background="new 0 0 173.7 173.7" xml:space="preserve">
<g>
	<path fill="#201E1E" d="M86.8,29.5c-31.6,0-57.3,25.7-57.3,57.3s25.7,57.3,57.3,57.3c31.6,0,57.3-25.7,57.3-57.3
		S118.5,29.5,86.8,29.5z M86.8,141.1c-30,0-54.3-24.3-54.3-54.3s24.3-54.3,54.3-54.3c30,0,54.3,24.3,54.3,54.3
		S116.8,141.1,86.8,141.1z"/>
	<g>
		<path fill="#201E1E" d="M86.8,138.5c23,0,42.5-15,49.2-35.8H37.6C44.3,123.5,63.8,138.5,86.8,138.5z"/>
		<path fill="#201E1E" d="M121.6,48.6l-9.8,7.2l-9.1-7.7l-3.7,3L87.4,39.3L77.1,51.1l-3.7-2.8l-10.3,8l-11.4-7.4
			c-6.4,6-11.4,13.5-14.1,22.1h98.4C133.3,62.3,128.2,54.6,121.6,48.6z M102.7,49.3l4.8,4.1l-4,2.3l-3.9-3.9L102.7,49.3z M87.4,40.7
			l8.9,9.1l-3.9-1.5l-2.8,4H88l-0.7-2.5l-2.5,2.5h-2.3v-2.2h-3.3L87.4,40.7z M78,56.5v1.9l-2,0.1v-1.8l-2.1,0.6l-0.5-1.7L71.8,57
			l-2.1-0.8v-2.1L68.3,55h-2l7-5.5l7.8,5.9v1.8L78,56.5z"/>
		<g>
			<path fill="#FFFFFF" d="M86.8,106.1c-1.5,0-2.8,0.8-3.5,2c-0.1,0.1-0.1,0.3,0,0.5l2.7,4.1c0.3,0.5,1.1,0.5,1.5,0l2.7-4.1
				c0.1-0.1,0.1-0.3,0-0.5C89.6,106.9,88.3,106.1,86.8,106.1z"/>
			<path fill="#FFFFFF" d="M86.8,133.3c-1.5,0-2.8-0.8-3.5-2c-0.1-0.1-0.1-0.3,0-0.5l2.7-4.1c0.3-0.5,1.1-0.5,1.5,0l2.7,4.1
				c0.1,0.1,0.1,0.3,0,0.5C89.6,132.5,88.3,133.3,86.8,133.3z"/>
			<polygon fill="#FFFFFF" points="100.5,106.4 99.8,105.7 87.2,118.2 74.6,105.7 73.9,106.4 86.5,119 73.9,131.5 74.6,132.2 
				87.2,119.7 99.8,132.2 100.5,131.5 87.9,119 			"/>
		</g>
	</g>
	<g>
		<path fill="#201E1E" d="M46.9,91.7H48l-1-3h-5.1l-1,3h1.4v1.5h-4.3v-1.5H39L43.1,80h2.6l4.1,11.7h1.3v1.5h-4.3V91.7z M42.3,87.3
			h4.1l-2.1-5.9L42.3,87.3z"/>
		<path fill="#201E1E" d="M52.5,80H62v3.7h-1.8v-2.2h-4.7v4.3H60v1.5h-4.6v4.5h1.3v1.5h-4.3v-1.5h1.3V81.5h-1.3V80z"/>
		<path fill="#201E1E" d="M80.1,80h4.3v1.5h-1.2l-3.8,11.7h-2.7l-3.6-11.5l-3.3,11.5h-2.6l-3.9-11.7h-1.2V80h4.3v1.5h-1.2l3.2,10.2
			L72,80h2.6l3.6,11.7l3.3-10.2h-1.3V80z"/>
		<path fill="#201E1E" d="M85.6,88.9c0,0.3,0,0.5,0.1,0.7c0,0.2,0.1,0.4,0.2,0.6c0.2,0.6,0.6,1,1,1.3s1,0.4,1.6,0.4
			c0.5,0,0.9-0.1,1.4-0.2s0.9-0.3,1.4-0.6l0.7,1.1c-0.6,0.4-1.2,0.7-1.8,0.9c-0.6,0.2-1.2,0.3-1.9,0.3c-0.6,0-1.2-0.1-1.7-0.3
			c-0.5-0.2-1-0.5-1.3-0.9c-0.4-0.4-0.7-0.9-0.9-1.5c-0.2-0.6-0.3-1.3-0.3-2.1c0-0.6,0.1-1.3,0.3-1.8s0.4-1.1,0.8-1.5
			c0.4-0.4,0.8-0.8,1.3-1c0.5-0.3,1.1-0.4,1.9-0.4c0.7,0,1.3,0.1,1.7,0.3s0.8,0.5,1.1,0.8c0.3,0.3,0.5,0.7,0.7,1.2
			c0.1,0.4,0.3,0.9,0.3,1.3c0,0.2,0,0.4,0.1,0.7s0,0.4,0,0.7H85.6z M88.2,85.3c-0.4,0-0.7,0.1-1,0.2c-0.3,0.1-0.5,0.3-0.7,0.5
			c-0.2,0.2-0.4,0.4-0.5,0.7c-0.1,0.3-0.2,0.6-0.3,1h4.7c0-0.3-0.1-0.6-0.2-0.9c-0.1-0.3-0.2-0.5-0.4-0.7c-0.2-0.2-0.4-0.4-0.7-0.5
			C88.9,85.4,88.6,85.3,88.2,85.3z"/>
		<path fill="#201E1E" d="M94,79.6h2.9v5.3c0.4-0.3,0.8-0.5,1.3-0.7c0.5-0.2,0.9-0.3,1.4-0.3c0.6,0,1.1,0.1,1.6,0.3
			c0.5,0.2,0.9,0.5,1.3,0.9c0.4,0.4,0.6,0.9,0.8,1.4s0.3,1.2,0.3,1.9c0,0.7-0.1,1.4-0.3,2c-0.2,0.6-0.5,1.1-0.9,1.5
			c-0.4,0.4-0.9,0.8-1.4,1c-0.5,0.2-1.1,0.3-1.8,0.3c-0.4,0-0.9-0.1-1.3-0.2c-0.4-0.1-0.7-0.3-1-0.5v0.6h-1.6V81.1H94V79.6z
			 M99.2,85.4c-0.4,0-0.8,0.1-1.2,0.3c-0.4,0.2-0.7,0.4-1,0.7v4.9c0.2,0.2,0.5,0.4,0.8,0.5c0.4,0.1,0.8,0.2,1.4,0.2
			c0.4,0,0.7-0.1,1.1-0.2c0.3-0.1,0.6-0.4,0.9-0.6c0.3-0.3,0.5-0.6,0.6-1.1c0.2-0.4,0.2-0.9,0.2-1.5c0-0.5-0.1-1-0.2-1.4
			s-0.3-0.7-0.6-1c-0.3-0.3-0.5-0.5-0.9-0.6C99.9,85.5,99.5,85.4,99.2,85.4z"/>
		<path fill="#201E1E" d="M105.3,80h4.9c0.6,0,1.2,0.1,1.7,0.2c0.5,0.2,1.1,0.4,1.5,0.7c0.5,0.3,0.9,0.6,1.3,1
			c0.4,0.4,0.7,0.8,1,1.3c0.3,0.5,0.5,1,0.6,1.6s0.2,1.1,0.2,1.8c0,0.6-0.1,1.2-0.2,1.8c-0.1,0.6-0.4,1.1-0.6,1.6
			c-0.3,0.5-0.6,0.9-1,1.3c-0.4,0.4-0.8,0.8-1.3,1s-1,0.5-1.5,0.7c-0.5,0.2-1.1,0.2-1.7,0.2h-4.9v-1.5h1.3V81.5h-1.3V80z
			 M108.3,81.5v10.2h2.1c0.6,0,1.2-0.1,1.7-0.4c0.5-0.3,1-0.6,1.4-1.1c0.4-0.5,0.7-1,1-1.6c0.2-0.6,0.3-1.3,0.3-2
			c0-0.7-0.1-1.4-0.3-2c-0.2-0.6-0.6-1.2-1-1.6c-0.4-0.5-0.9-0.8-1.4-1.1c-0.5-0.3-1.1-0.4-1.7-0.4H108.3z"/>
		<path fill="#201E1E" d="M119.8,88.9c0,0.3,0,0.5,0.1,0.7c0,0.2,0.1,0.4,0.2,0.6c0.2,0.6,0.6,1,1,1.3s1,0.4,1.6,0.4
			c0.5,0,0.9-0.1,1.4-0.2s0.9-0.3,1.4-0.6l0.7,1.1c-0.6,0.4-1.2,0.7-1.8,0.9c-0.6,0.2-1.2,0.3-1.9,0.3c-0.6,0-1.2-0.1-1.7-0.3
			c-0.5-0.2-1-0.5-1.3-0.9c-0.4-0.4-0.7-0.9-0.9-1.5c-0.2-0.6-0.3-1.3-0.3-2.1c0-0.6,0.1-1.3,0.3-1.8s0.5-1.1,0.8-1.5
			c0.4-0.4,0.8-0.8,1.3-1c0.5-0.3,1.1-0.4,1.9-0.4c0.7,0,1.3,0.1,1.7,0.3s0.8,0.5,1.1,0.8c0.3,0.3,0.5,0.7,0.7,1.2
			c0.1,0.4,0.3,0.9,0.3,1.3c0,0.2,0,0.4,0.1,0.7s0,0.4,0,0.7H119.8z M122.3,85.3c-0.4,0-0.7,0.1-1,0.2c-0.3,0.1-0.5,0.3-0.7,0.5
			c-0.2,0.2-0.4,0.4-0.5,0.7s-0.2,0.6-0.3,1h4.7c0-0.3-0.1-0.6-0.2-0.9c-0.1-0.3-0.2-0.5-0.4-0.7c-0.2-0.2-0.4-0.4-0.7-0.5
			C123,85.4,122.7,85.3,122.3,85.3z"/>
		<path fill="#201E1E" d="M127.7,84.2h3.1v1.5h-0.8l2.2,6.2l2.2-6.2h-0.6v-1.5h2.9v1.5h-0.8l-3,7.7h-1.6l-3-7.7h-0.7V84.2z"/>
	</g>
</g>
</svg>
