<svg enable-background="new 0 0 173.7 173.7" version="1.1" viewBox="0 0 143.25 46.149" xml:space="preserve" xmlns="http://www.w3.org/2000/svg">
<g transform="translate(-12.777 -86.588)">
	
	
	
<path d="m135.07 100.13-14.267 10.482-13.248-11.21-5.3865 4.3674-16.887-17.179-14.995 17.179-5.3865-4.0763-14.995 11.647-16.596-10.773c-9.3172 8.7349-16.596 19.653-20.527 32.173h143.25c-3.9307-12.666-11.355-23.875-20.964-32.61zm-27.515 1.0191 6.9879 5.9688-5.8233 3.3484-5.6777-5.6777zm-22.274-12.52 12.957 13.248-5.6777-2.1837-4.0763 5.8233h-2.3293l-1.0191-3.6395-3.6395 3.6395h-3.3484v-3.2028h-4.8042zm-13.685 23.002v2.766l-2.9116 0.14558v-2.6205l-3.0572 0.87349-0.72791-2.4749-2.3293 2.0381-3.0572-1.1646v-3.0572l-2.0381 1.3102h-2.9116l10.191-8.007 11.355 8.5893v2.6205z" fill="#201e1e" image-rendering="auto" stroke-width="1.4558"/></g>
</svg>
