<svg xmlns="http://www.w3.org/2000/svg" version="1.1" xmlns:xlink="http://www.w3.org/1999/xlink" xmlns:svgjs="http://svgjs.com/svgjs" preserveAspectRatio="none" viewBox="0 -25 1161 231">
    <g mask="url(&quot;#SvgjsMask1024&quot;)" fill="none">
        <path d="M 0,2 C 33.2,22.2 99.6,102.4 166,103 C 232.4,103.6 265.6,8.8 332,5 C 398.4,1.2 431.6,83.4 498,84 C 564.4,84.6 597.6,3.6 664,8 C 730.4,12.4 763.6,99 830,106 C 896.4,113 929.8,41.6 996,43 C 1062.2,44.4 1128,99 1161,113L1161 231L0 231z" fill="rgba(20, 33, 61, 1)"></path>
        <path d="M 0,163 C 77.4,175.4 232.2,231.2 387,225 C 541.8,218.8 619.2,134.2 774,132 C 928.8,129.8 1083.6,197.6 1161,214L1161 231L0 231z" fill="rgba(0, 0, 0, 1)"></path>
    </g>
    <defs>
        <mask id="SvgjsMask1024">
            <rect width="100%" height="100%" fill="#ffffff"></rect>
        </mask>
    </defs>
</svg>
