<svg xmlns="http://www.w3.org/2000/svg" version="1.1" xmlns:xlink="http://www.w3.org/1999/xlink" xmlns:svgjs="http://svgjs.com/svgjs" width="1440" height="560" preserveAspectRatio="none" viewBox="0 0 1161 231">
    <g mask="url(&quot;#SvgjsMask1019&quot;)" fill="none">
        <path d="M1203.143,681.03C1258.85,678.825,1289.831,622.69,1316.398,573.676C1341.235,527.852,1364.192,475.468,1339.417,429.611C1313.736,382.078,1257.136,362.131,1203.143,364.049C1152.535,365.847,1108.486,395.168,1082.67,438.733C1056.283,483.262,1050.173,536.955,1073.217,583.302C1099.077,635.312,1145.104,683.327,1203.143,681.03" fill="rgba(20, 33, 61, 0.78)" class="triangle-float1"></path>
        <path d="M1161.5 116.44 a117.17 117.17 0 1 0 234.34 0 a117.17 117.17 0 1 0 -234.34 0z" fill="rgba(20, 33, 61, 0.78)" class="triangle-float2"></path>
        <path d="M1019.93 312.88 a173.46 173.46 0 1 0 346.92 0 a173.46 173.46 0 1 0 -346.92 0z" fill="rgba(20, 33, 61, 0.78)" class="triangle-float2"></path>
        <path d="M-13.04 103.58 a182.06 182.06 0 1 0 364.12 0 a182.06 182.06 0 1 0 -364.12 0z" fill="rgba(20, 33, 61, 0.78)" class="triangle-float1"></path>
        <path d="M399.073,637.359C455.476,638.735,511.67,615.302,540.298,566.685C569.308,517.419,566.485,454.383,534.866,406.749C506.078,363.379,451.1,355.646,399.073,353.927C342.542,352.059,276.924,349.361,246.79,397.228C215.5,446.932,237.84,510.476,269.295,560.076C298.196,605.649,345.125,636.043,399.073,637.359" fill="rgba(20, 33, 61, 0.78)" class="triangle-float1"></path>
        <path d="M-156.19 435.15 a164.51 164.51 0 1 0 329.02 0 a164.51 164.51 0 1 0 -329.02 0z" fill="rgba(20, 33, 61, 0.78)" class="triangle-float2"></path>
    </g>
    <defs>
        <mask id="SvgjsMask1019">
            <rect width="1440" height="560" fill="#ffffff"></rect>
        </mask>
        <style>
            @keyframes float1 {
                0%{transform: translate(0, 0)}
                50%{transform: translate(-10px, 0)}
                100%{transform: translate(0, 0)}
            }

            .triangle-float1 {
                animation: float1 5s infinite;
            }

            @keyframes float2 {
                0%{transform: translate(0, 0)}
                50%{transform: translate(-5px, -5px)}
                100%{transform: translate(0, 0)}
            }

            .triangle-float2 {
                animation: float2 4s infinite;
            }

            @keyframes float3 {
                0%{transform: translate(0, 0)}
                50%{transform: translate(0, -10px)}
                100%{transform: translate(0, 0)}
            }

            .triangle-float3 {
                animation: float3 6s infinite;
            }
        </style>
    </defs>
</svg>
