<svg xmlns="http://www.w3.org/2000/svg" version="1.1" xmlns:xlink="http://www.w3.org/1999/xlink" xmlns:svgjs="http://svgjs.com/svgjs" width="1440" height="560" preserveAspectRatio="none" viewBox="0 0 1161 231">
    <g mask="url(&quot;#SvgjsMask1444&quot;)" fill="none">
        <rect width="1440" height="560" x="0" y="0" fill="url(#SvgjsLinearGradient1445)"></rect>
        <path d="M-107.11 345.01L-107.11 345.01" stroke="rgba(20, 33, 61, 1)" stroke-width="1.5"></path>
        <path d="M-107.11 345.01L-105.03 522.81" stroke="rgba(20, 33, 61, 1)" stroke-width="1.5"></path>
        <path d="M-107.11 345.01L111.65 389.47" stroke="rgba(20, 33, 61, 1)" stroke-width="1.5"></path>
        <path d="M-107.11 345.01L53.43 503.53" stroke="rgba(20, 33, 61, 1)" stroke-width="1.5"></path>
        <path d="M-107.11 345.01L-55.97 643.02" stroke="rgba(20, 33, 61, 1)" stroke-width="1.5"></path>
        <path d="M-105.03 522.81L-105.03 522.81" stroke="rgba(20, 33, 61, 1)" stroke-width="1.5"></path>
        <path d="M-105.03 522.81L-55.97 643.02" stroke="rgba(20, 33, 61, 1)" stroke-width="1.5"></path>
        <path d="M-105.03 522.81L53.43 503.53" stroke="rgba(20, 33, 61, 1)" stroke-width="1.5"></path>
        <path d="M-105.03 522.81L101.23 671.21" stroke="rgba(20, 33, 61, 1)" stroke-width="1.5"></path>
        <path d="M-105.03 522.81L111.65 389.47" stroke="rgba(20, 33, 61, 1)" stroke-width="1.5"></path>
        <path d="M-55.97 643.02L-55.97 643.02" stroke="rgba(20, 33, 61, 1)" stroke-width="1.5"></path>
        <path d="M-55.97 643.02L101.23 671.21" stroke="rgba(20, 33, 61, 1)" stroke-width="1.5"></path>
        <path d="M-55.97 643.02L53.43 503.53" stroke="rgba(20, 33, 61, 1)" stroke-width="1.5"></path>
        <path d="M-55.97 643.02L197.27 677.76" stroke="rgba(20, 33, 61, 1)" stroke-width="1.5"></path>
        <path d="M-55.97 643.02L111.65 389.47" stroke="rgba(20, 33, 61, 1)" stroke-width="1.5"></path>
        <path d="M111.65 389.47L111.65 389.47" stroke="rgba(20, 33, 61, 1)" stroke-width="1.5"></path>
        <path d="M111.65 389.47L216.46 398.2" stroke="rgba(20, 33, 61, 1)" stroke-width="1.5"></path>
        <path d="M111.65 389.47L53.43 503.53" stroke="rgba(20, 33, 61, 1)" stroke-width="1.5"></path>
        <path d="M111.65 389.47L252.27 531.05" stroke="rgba(20, 33, 61, 1)" stroke-width="1.5"></path>
        <path d="M53.43 503.53L53.43 503.53" stroke="rgba(20, 33, 61, 1)" stroke-width="1.5"></path>
        <path d="M53.43 503.53L101.23 671.21" stroke="rgba(20, 33, 61, 1)" stroke-width="1.5"></path>
        <path d="M101.23 671.21L101.23 671.21" stroke="rgba(20, 33, 61, 1)" stroke-width="1.5"></path>
        <path d="M101.23 671.21L197.27 677.76" stroke="rgba(20, 33, 61, 1)" stroke-width="1.5"></path>
        <path d="M101.23 671.21L252.27 531.05" stroke="rgba(20, 33, 61, 1)" stroke-width="1.5"></path>
        <path d="M101.23 671.21L363.76 671.46" stroke="rgba(20, 33, 61, 1)" stroke-width="1.5"></path>
        <path d="M216.46 398.2L216.46 398.2" stroke="rgba(20, 33, 61, 1)" stroke-width="1.5"></path>
        <path d="M216.46 398.2L252.27 531.05" stroke="rgba(20, 33, 61, 1)" stroke-width="1.5"></path>
        <path d="M216.46 398.2L374.84 380.87" stroke="rgba(20, 33, 61, 1)" stroke-width="1.5"></path>
        <path d="M216.46 398.2L349.66 499.03" stroke="rgba(20, 33, 61, 1)" stroke-width="1.5"></path>
        <path d="M216.46 398.2L53.43 503.53" stroke="rgba(20, 33, 61, 1)" stroke-width="1.5"></path>
        <path d="M252.27 531.05L252.27 531.05" stroke="rgba(20, 33, 61, 1)" stroke-width="1.5"></path>
        <path d="M252.27 531.05L349.66 499.03" stroke="rgba(20, 33, 61, 1)" stroke-width="1.5"></path>
        <path d="M197.27 677.76L197.27 677.76" stroke="rgba(20, 33, 61, 1)" stroke-width="1.5"></path>
        <path d="M197.27 677.76L252.27 531.05" stroke="rgba(20, 33, 61, 1)" stroke-width="1.5"></path>
        <path d="M197.27 677.76L363.76 671.46" stroke="rgba(20, 33, 61, 1)" stroke-width="1.5"></path>
        <path d="M374.84 380.87L374.84 380.87" stroke="rgba(20, 33, 61, 1)" stroke-width="1.5"></path>
        <path d="M374.84 380.87L349.66 499.03" stroke="rgba(20, 33, 61, 1)" stroke-width="1.5"></path>
        <path d="M349.66 499.03L349.66 499.03" stroke="rgba(20, 33, 61, 1)" stroke-width="1.5"></path>
        <path d="M349.66 499.03L489.18 543.25" stroke="rgba(20, 33, 61, 1)" stroke-width="1.5"></path>
        <path d="M363.76 671.46L363.76 671.46" stroke="rgba(20, 33, 61, 1)" stroke-width="1.5"></path>
        <path d="M363.76 671.46L349.66 499.03" stroke="rgba(20, 33, 61, 1)" stroke-width="1.5"></path>
        <path d="M363.76 671.46L252.27 531.05" stroke="rgba(20, 33, 61, 1)" stroke-width="1.5"></path>
        <path d="M363.76 671.46L489.18 543.25" stroke="rgba(20, 33, 61, 1)" stroke-width="1.5"></path>
        <path d="M489.18 543.25L489.18 543.25" stroke="rgba(20, 33, 61, 1)" stroke-width="1.5"></path>
        <path d="M489.18 543.25L556.52 641.14" stroke="rgba(20, 33, 61, 1)" stroke-width="1.5"></path>
        <path d="M489.18 543.25L678.67 511.26" stroke="rgba(20, 33, 61, 1)" stroke-width="1.5"></path>
        <path d="M489.18 543.25L374.84 380.87" stroke="rgba(20, 33, 61, 1)" stroke-width="1.5"></path>
        <path d="M556.52 641.14L556.52 641.14" stroke="rgba(20, 33, 61, 1)" stroke-width="1.5"></path>
        <path d="M556.52 641.14L642.71 689.48" stroke="rgba(20, 33, 61, 1)" stroke-width="1.5"></path>
        <path d="M556.52 641.14L678.67 511.26" stroke="rgba(20, 33, 61, 1)" stroke-width="1.5"></path>
        <path d="M556.52 641.14L363.76 671.46" stroke="rgba(20, 33, 61, 1)" stroke-width="1.5"></path>
        <path d="M556.52 641.14L349.66 499.03" stroke="rgba(20, 33, 61, 1)" stroke-width="1.5"></path>
        <path d="M556.52 641.14L837.06 667.78" stroke="rgba(20, 33, 61, 1)" stroke-width="1.5"></path>
        <path d="M676.56 215.59L676.56 215.59" stroke="rgba(20, 33, 61, 1)" stroke-width="1.5"></path>
        <path d="M676.56 215.59L828.75 231.27" stroke="rgba(20, 33, 61, 1)" stroke-width="1.5"></path>
        <path d="M676.56 215.59L711.61 372.67" stroke="rgba(20, 33, 61, 1)" stroke-width="1.5"></path>
        <path d="M676.56 215.59L849.97 69.06" stroke="rgba(20, 33, 61, 1)" stroke-width="1.5"></path>
        <path d="M676.56 215.59L816.49 410.53" stroke="rgba(20, 33, 61, 1)" stroke-width="1.5"></path>
        <path d="M676.56 215.59L954.86 257.53" stroke="rgba(20, 33, 61, 1)" stroke-width="1.5"></path>
        <path d="M711.61 372.67L711.61 372.67" stroke="rgba(20, 33, 61, 1)" stroke-width="1.5"></path>
        <path d="M711.61 372.67L816.49 410.53" stroke="rgba(20, 33, 61, 1)" stroke-width="1.5"></path>
        <path d="M711.61 372.67L678.67 511.26" stroke="rgba(20, 33, 61, 1)" stroke-width="1.5"></path>
        <path d="M711.61 372.67L828.75 231.27" stroke="rgba(20, 33, 61, 1)" stroke-width="1.5"></path>
        <path d="M711.61 372.67L857.05 543.27" stroke="rgba(20, 33, 61, 1)" stroke-width="1.5"></path>
        <path d="M711.61 372.67L954.86 257.53" stroke="rgba(20, 33, 61, 1)" stroke-width="1.5"></path>
        <path d="M678.67 511.26L678.67 511.26" stroke="rgba(20, 33, 61, 1)" stroke-width="1.5"></path>
        <path d="M678.67 511.26L816.49 410.53" stroke="rgba(20, 33, 61, 1)" stroke-width="1.5"></path>
        <path d="M678.67 511.26L857.05 543.27" stroke="rgba(20, 33, 61, 1)" stroke-width="1.5"></path>
        <path d="M642.71 689.48L642.71 689.48" stroke="rgba(20, 33, 61, 1)" stroke-width="1.5"></path>
        <path d="M642.71 689.48L678.67 511.26" stroke="rgba(20, 33, 61, 1)" stroke-width="1.5"></path>
        <path d="M849.97 69.06L849.97 69.06" stroke="rgba(20, 33, 61, 1)" stroke-width="1.5"></path>
        <path d="M849.97 69.06L949.11 41.14" stroke="rgba(20, 33, 61, 1)" stroke-width="1.5"></path>
        <path d="M849.97 69.06L828.75 231.27" stroke="rgba(20, 33, 61, 1)" stroke-width="1.5"></path>
        <path d="M828.75 231.27L828.75 231.27" stroke="rgba(20, 33, 61, 1)" stroke-width="1.5"></path>
        <path d="M828.75 231.27L954.86 257.53" stroke="rgba(20, 33, 61, 1)" stroke-width="1.5"></path>
        <path d="M828.75 231.27L816.49 410.53" stroke="rgba(20, 33, 61, 1)" stroke-width="1.5"></path>
        <path d="M816.49 410.53L816.49 410.53" stroke="rgba(20, 33, 61, 1)" stroke-width="1.5"></path>
        <path d="M816.49 410.53L857.05 543.27" stroke="rgba(20, 33, 61, 1)" stroke-width="1.5"></path>
        <path d="M857.05 543.27L857.05 543.27" stroke="rgba(20, 33, 61, 1)" stroke-width="1.5"></path>
        <path d="M857.05 543.27L837.06 667.78" stroke="rgba(20, 33, 61, 1)" stroke-width="1.5"></path>
        <path d="M857.05 543.27L997.84 516.65" stroke="rgba(20, 33, 61, 1)" stroke-width="1.5"></path>
        <path d="M857.05 543.27L970.96 674.63" stroke="rgba(20, 33, 61, 1)" stroke-width="1.5"></path>
        <path d="M837.06 667.78L837.06 667.78" stroke="rgba(20, 33, 61, 1)" stroke-width="1.5"></path>
        <path d="M837.06 667.78L970.96 674.63" stroke="rgba(20, 33, 61, 1)" stroke-width="1.5"></path>
        <path d="M837.06 667.78L642.71 689.48" stroke="rgba(20, 33, 61, 1)" stroke-width="1.5"></path>
        <path d="M955.21 -95.5L955.21 -95.5" stroke="rgba(20, 33, 61, 1)" stroke-width="1.5"></path>
        <path d="M955.21 -95.5L949.11 41.14" stroke="rgba(20, 33, 61, 1)" stroke-width="1.5"></path>
        <path d="M955.21 -95.5L1145.17 -86.1" stroke="rgba(20, 33, 61, 1)" stroke-width="1.5"></path>
        <path d="M955.21 -95.5L849.97 69.06" stroke="rgba(20, 33, 61, 1)" stroke-width="1.5"></path>
        <path d="M949.11 41.14L949.11 41.14" stroke="rgba(20, 33, 61, 1)" stroke-width="1.5"></path>
        <path d="M949.11 41.14L1096.23 198.44" stroke="rgba(20, 33, 61, 1)" stroke-width="1.5"></path>
        <path d="M949.11 41.14L954.86 257.53" stroke="rgba(20, 33, 61, 1)" stroke-width="1.5"></path>
        <path d="M954.86 257.53L954.86 257.53" stroke="rgba(20, 33, 61, 1)" stroke-width="1.5"></path>
        <path d="M954.86 257.53L1008.72 359.5" stroke="rgba(20, 33, 61, 1)" stroke-width="1.5"></path>
        <path d="M1008.72 359.5L1008.72 359.5" stroke="rgba(20, 33, 61, 1)" stroke-width="1.5"></path>
        <path d="M1008.72 359.5L1148.51 396.13" stroke="rgba(20, 33, 61, 1)" stroke-width="1.5"></path>
        <path d="M997.84 516.65L997.84 516.65" stroke="rgba(20, 33, 61, 1)" stroke-width="1.5"></path>
        <path d="M997.84 516.65L1091.06 510.93" stroke="rgba(20, 33, 61, 1)" stroke-width="1.5"></path>
        <path d="M970.96 674.63L970.96 674.63" stroke="rgba(20, 33, 61, 1)" stroke-width="1.5"></path>
        <path d="M970.96 674.63L1113.46 691.83" stroke="rgba(20, 33, 61, 1)" stroke-width="1.5"></path>
        <path d="M970.96 674.63L997.84 516.65" stroke="rgba(20, 33, 61, 1)" stroke-width="1.5"></path>
        <path d="M1145.17 -86.1L1145.17 -86.1" stroke="rgba(20, 33, 61, 1)" stroke-width="1.5"></path>
        <path d="M1145.17 -86.1L1284 -76.06" stroke="rgba(20, 33, 61, 1)" stroke-width="1.5"></path>
        <path d="M1145.17 -86.1L1241.39 64.92" stroke="rgba(20, 33, 61, 1)" stroke-width="1.5"></path>
        <path d="M1157.06 102.37L1157.06 102.37" stroke="rgba(20, 33, 61, 1)" stroke-width="1.5"></path>
        <path d="M1157.06 102.37L1241.39 64.92" stroke="rgba(20, 33, 61, 1)" stroke-width="1.5"></path>
        <path d="M1157.06 102.37L1096.23 198.44" stroke="rgba(20, 33, 61, 1)" stroke-width="1.5"></path>
        <path d="M1096.23 198.44L1096.23 198.44" stroke="rgba(20, 33, 61, 1)" stroke-width="1.5"></path>
        <path d="M1096.23 198.44L954.86 257.53" stroke="rgba(20, 33, 61, 1)" stroke-width="1.5"></path>
        <path d="M1096.23 198.44L1248.3 229.73" stroke="rgba(20, 33, 61, 1)" stroke-width="1.5"></path>
        <path d="M1148.51 396.13L1148.51 396.13" stroke="rgba(20, 33, 61, 1)" stroke-width="1.5"></path>
        <path d="M1148.51 396.13L1260.82 371.04" stroke="rgba(20, 33, 61, 1)" stroke-width="1.5"></path>
        <path d="M1148.51 396.13L1091.06 510.93" stroke="rgba(20, 33, 61, 1)" stroke-width="1.5"></path>
        <path d="M1091.06 510.93L1091.06 510.93" stroke="rgba(20, 33, 61, 1)" stroke-width="1.5"></path>
        <path d="M1091.06 510.93L1240.27 543.71" stroke="rgba(20, 33, 61, 1)" stroke-width="1.5"></path>
        <path d="M1091.06 510.93L1008.72 359.5" stroke="rgba(20, 33, 61, 1)" stroke-width="1.5"></path>
        <path d="M1113.46 691.83L1113.46 691.83" stroke="rgba(20, 33, 61, 1)" stroke-width="1.5"></path>
        <path d="M1113.46 691.83L1281.23 689.08" stroke="rgba(20, 33, 61, 1)" stroke-width="1.5"></path>
        <path d="M1113.46 691.83L1091.06 510.93" stroke="rgba(20, 33, 61, 1)" stroke-width="1.5"></path>
        <path d="M1284 -76.06L1284 -76.06" stroke="rgba(20, 33, 61, 1)" stroke-width="1.5"></path>
        <path d="M1284 -76.06L1241.39 64.92" stroke="rgba(20, 33, 61, 1)" stroke-width="1.5"></path>
        <path d="M1241.39 64.92L1241.39 64.92" stroke="rgba(20, 33, 61, 1)" stroke-width="1.5"></path>
        <path d="M1248.3 229.73L1248.3 229.73" stroke="rgba(20, 33, 61, 1)" stroke-width="1.5"></path>
        <path d="M1248.3 229.73L1260.82 371.04" stroke="rgba(20, 33, 61, 1)" stroke-width="1.5"></path>
        <path d="M1248.3 229.73L1157.06 102.37" stroke="rgba(20, 33, 61, 1)" stroke-width="1.5"></path>
        <path d="M1260.82 371.04L1260.82 371.04" stroke="rgba(20, 33, 61, 1)" stroke-width="1.5"></path>
        <path d="M1260.82 371.04L1410.65 376.94" stroke="rgba(20, 33, 61, 1)" stroke-width="1.5"></path>
        <path d="M1260.82 371.04L1240.27 543.71" stroke="rgba(20, 33, 61, 1)" stroke-width="1.5"></path>
        <path d="M1240.27 543.71L1240.27 543.71" stroke="rgba(20, 33, 61, 1)" stroke-width="1.5"></path>
        <path d="M1240.27 543.71L1281.23 689.08" stroke="rgba(20, 33, 61, 1)" stroke-width="1.5"></path>
        <path d="M1240.27 543.71L1148.51 396.13" stroke="rgba(20, 33, 61, 1)" stroke-width="1.5"></path>
        <path d="M1240.27 543.71L1113.46 691.83" stroke="rgba(20, 33, 61, 1)" stroke-width="1.5"></path>
        <path d="M1240.27 543.71L1432.38 495.61" stroke="rgba(20, 33, 61, 1)" stroke-width="1.5"></path>
        <path d="M1281.23 689.08L1281.23 689.08" stroke="rgba(20, 33, 61, 1)" stroke-width="1.5"></path>
        <path d="M1281.23 689.08L1406.34 654.28" stroke="rgba(20, 33, 61, 1)" stroke-width="1.5"></path>
        <path d="M1281.23 689.08L1432.38 495.61" stroke="rgba(20, 33, 61, 1)" stroke-width="1.5"></path>
        <path d="M1448.35 84.2L1448.35 84.2" stroke="rgba(20, 33, 61, 1)" stroke-width="1.5"></path>
        <path d="M1448.35 84.2L1581.38 54.28" stroke="rgba(20, 33, 61, 1)" stroke-width="1.5"></path>
        <path d="M1448.35 84.2L1439.51 257.88" stroke="rgba(20, 33, 61, 1)" stroke-width="1.5"></path>
        <path d="M1448.35 84.2L1574.9 -49.76" stroke="rgba(20, 33, 61, 1)" stroke-width="1.5"></path>
        <path d="M1448.35 84.2L1241.39 64.92" stroke="rgba(20, 33, 61, 1)" stroke-width="1.5"></path>
        <path d="M1448.35 84.2L1284 -76.06" stroke="rgba(20, 33, 61, 1)" stroke-width="1.5"></path>
        <path d="M1448.35 84.2L1248.3 229.73" stroke="rgba(20, 33, 61, 1)" stroke-width="1.5"></path>
        <path d="M1439.51 257.88L1439.51 257.88" stroke="rgba(20, 33, 61, 1)" stroke-width="1.5"></path>
        <path d="M1439.51 257.88L1410.65 376.94" stroke="rgba(20, 33, 61, 1)" stroke-width="1.5"></path>
        <path d="M1439.51 257.88L1587.5 341.61" stroke="rgba(20, 33, 61, 1)" stroke-width="1.5"></path>
        <path d="M1410.65 376.94L1410.65 376.94" stroke="rgba(20, 33, 61, 1)" stroke-width="1.5"></path>
        <path d="M1410.65 376.94L1432.38 495.61" stroke="rgba(20, 33, 61, 1)" stroke-width="1.5"></path>
        <path d="M1432.38 495.61L1432.38 495.61" stroke="rgba(20, 33, 61, 1)" stroke-width="1.5"></path>
        <path d="M1432.38 495.61L1406.34 654.28" stroke="rgba(20, 33, 61, 1)" stroke-width="1.5"></path>
        <path d="M1432.38 495.61L1589.78 546.74" stroke="rgba(20, 33, 61, 1)" stroke-width="1.5"></path>
        <path d="M1432.38 495.61L1566.93 649.42" stroke="rgba(20, 33, 61, 1)" stroke-width="1.5"></path>
        <path d="M1432.38 495.61L1260.82 371.04" stroke="rgba(20, 33, 61, 1)" stroke-width="1.5"></path>
        <path d="M1406.34 654.28L1406.34 654.28" stroke="rgba(20, 33, 61, 1)" stroke-width="1.5"></path>
        <path d="M1406.34 654.28L1566.93 649.42" stroke="rgba(20, 33, 61, 1)" stroke-width="1.5"></path>
        <path d="M1574.9 -49.76L1574.9 -49.76" stroke="rgba(20, 33, 61, 1)" stroke-width="1.5"></path>
        <path d="M1574.9 -49.76L1581.38 54.28" stroke="rgba(20, 33, 61, 1)" stroke-width="1.5"></path>
        <path d="M1574.9 -49.76L1284 -76.06" stroke="rgba(20, 33, 61, 1)" stroke-width="1.5"></path>
        <path d="M1574.9 -49.76L1439.51 257.88" stroke="rgba(20, 33, 61, 1)" stroke-width="1.5"></path>
        <path d="M1574.9 -49.76L1241.39 64.92" stroke="rgba(20, 33, 61, 1)" stroke-width="1.5"></path>
        <path d="M1581.38 54.28L1581.38 54.28" stroke="rgba(20, 33, 61, 1)" stroke-width="1.5"></path>
        <path d="M1587.5 341.61L1587.5 341.61" stroke="rgba(20, 33, 61, 1)" stroke-width="1.5"></path>
        <path d="M1587.5 341.61L1410.65 376.94" stroke="rgba(20, 33, 61, 1)" stroke-width="1.5"></path>
        <path d="M1587.5 341.61L1589.78 546.74" stroke="rgba(20, 33, 61, 1)" stroke-width="1.5"></path>
        <path d="M1587.5 341.61L1432.38 495.61" stroke="rgba(20, 33, 61, 1)" stroke-width="1.5"></path>
        <path d="M1587.5 341.61L1581.38 54.28" stroke="rgba(20, 33, 61, 1)" stroke-width="1.5"></path>
        <path d="M1587.5 341.61L1448.35 84.2" stroke="rgba(20, 33, 61, 1)" stroke-width="1.5"></path>
        <path d="M1589.78 546.74L1589.78 546.74" stroke="rgba(20, 33, 61, 1)" stroke-width="1.5"></path>
        <path d="M1589.78 546.74L1566.93 649.42" stroke="rgba(20, 33, 61, 1)" stroke-width="1.5"></path>
        <path d="M1566.93 649.42L1566.93 649.42" stroke="rgba(20, 33, 61, 1)" stroke-width="1.5"></path>
        <circle r="5" cx="-107.11" cy="345.01" fill="rgba(20, 33, 61, 1)"></circle>
        <circle r="5" cx="-105.03" cy="522.81" fill="rgba(20, 33, 61, 1)"></circle>
        <circle r="5" cx="-55.97" cy="643.02" fill="rgba(20, 33, 61, 1)"></circle>
        <circle r="5" cx="111.65" cy="389.47" fill="rgba(20, 33, 61, 1)"></circle>
        <circle r="5" cx="53.43" cy="503.53" fill="rgba(20, 33, 61, 1)"></circle>
        <circle r="5" cx="101.23" cy="671.21" fill="rgba(20, 33, 61, 1)"></circle>
        <circle r="5" cx="216.46" cy="398.2" fill="rgba(20, 33, 61, 1)"></circle>
        <circle r="5" cx="252.27" cy="531.05" fill="rgba(20, 33, 61, 1)"></circle>
        <circle r="5" cx="197.27" cy="677.76" fill="rgba(20, 33, 61, 1)"></circle>
        <circle r="5" cx="374.84" cy="380.87" fill="rgba(20, 33, 61, 1)"></circle>
        <circle r="5" cx="349.66" cy="499.03" fill="rgba(20, 33, 61, 1)"></circle>
        <circle r="5" cx="363.76" cy="671.46" fill="rgba(20, 33, 61, 1)"></circle>
        <circle r="5" cx="489.18" cy="543.25" fill="rgba(20, 33, 61, 1)"></circle>
        <circle r="5" cx="556.52" cy="641.14" fill="rgba(20, 33, 61, 1)"></circle>
        <circle r="5" cx="676.56" cy="215.59" fill="rgba(20, 33, 61, 1)"></circle>
        <circle r="5" cx="711.61" cy="372.67" fill="rgba(20, 33, 61, 1)"></circle>
        <circle r="5" cx="678.67" cy="511.26" fill="rgba(20, 33, 61, 1)"></circle>
        <circle r="5" cx="642.71" cy="689.48" fill="rgba(20, 33, 61, 1)"></circle>
        <circle r="5" cx="849.97" cy="69.06" fill="rgba(20, 33, 61, 1)"></circle>
        <circle r="5" cx="828.75" cy="231.27" fill="rgba(20, 33, 61, 1)"></circle>
        <circle r="5" cx="816.49" cy="410.53" fill="rgba(20, 33, 61, 1)"></circle>
        <circle r="5" cx="857.05" cy="543.27" fill="rgba(20, 33, 61, 1)"></circle>
        <circle r="5" cx="837.06" cy="667.78" fill="rgba(20, 33, 61, 1)"></circle>
        <circle r="5" cx="955.21" cy="-95.5" fill="rgba(20, 33, 61, 1)"></circle>
        <circle r="5" cx="949.11" cy="41.14" fill="rgba(20, 33, 61, 1)"></circle>
        <circle r="5" cx="954.86" cy="257.53" fill="rgba(20, 33, 61, 1)"></circle>
        <circle r="5" cx="1008.72" cy="359.5" fill="rgba(20, 33, 61, 1)"></circle>
        <circle r="5" cx="997.84" cy="516.65" fill="rgba(20, 33, 61, 1)"></circle>
        <circle r="5" cx="970.96" cy="674.63" fill="rgba(20, 33, 61, 1)"></circle>
        <circle r="5" cx="1145.17" cy="-86.1" fill="rgba(20, 33, 61, 1)"></circle>
        <circle r="5" cx="1157.06" cy="102.37" fill="rgba(20, 33, 61, 1)"></circle>
        <circle r="5" cx="1096.23" cy="198.44" fill="rgba(20, 33, 61, 1)"></circle>
        <circle r="5" cx="1148.51" cy="396.13" fill="rgba(20, 33, 61, 1)"></circle>
        <circle r="5" cx="1091.06" cy="510.93" fill="rgba(20, 33, 61, 1)"></circle>
        <circle r="5" cx="1113.46" cy="691.83" fill="rgba(20, 33, 61, 1)"></circle>
        <circle r="5" cx="1284" cy="-76.06" fill="rgba(20, 33, 61, 1)"></circle>
        <circle r="5" cx="1241.39" cy="64.92" fill="rgba(20, 33, 61, 1)"></circle>
        <circle r="5" cx="1248.3" cy="229.73" fill="rgba(20, 33, 61, 1)"></circle>
        <circle r="5" cx="1260.82" cy="371.04" fill="rgba(20, 33, 61, 1)"></circle>
        <circle r="5" cx="1240.27" cy="543.71" fill="rgba(20, 33, 61, 1)"></circle>
        <circle r="5" cx="1281.23" cy="689.08" fill="rgba(20, 33, 61, 1)"></circle>
        <circle r="5" cx="1448.35" cy="84.2" fill="rgba(20, 33, 61, 1)"></circle>
        <circle r="5" cx="1439.51" cy="257.88" fill="rgba(20, 33, 61, 1)"></circle>
        <circle r="5" cx="1410.65" cy="376.94" fill="rgba(20, 33, 61, 1)"></circle>
        <circle r="5" cx="1432.38" cy="495.61" fill="rgba(20, 33, 61, 1)"></circle>
        <circle r="5" cx="1406.34" cy="654.28" fill="rgba(20, 33, 61, 1)"></circle>
        <circle r="5" cx="1574.9" cy="-49.76" fill="rgba(20, 33, 61, 1)"></circle>
        <circle r="5" cx="1581.38" cy="54.28" fill="rgba(20, 33, 61, 1)"></circle>
        <circle r="5" cx="1587.5" cy="341.61" fill="rgba(20, 33, 61, 1)"></circle>
        <circle r="5" cx="1589.78" cy="546.74" fill="rgba(20, 33, 61, 1)"></circle>
        <circle r="5" cx="1566.93" cy="649.42" fill="rgba(20, 33, 61, 1)"></circle>
        <path d="M231.3 503.46L231.3 503.46" stroke="hsl(37.30000000000001, 97.5%, 68.6%)" stroke-width="1.5"></path>
        <path d="M231.3 503.46L252.14 641.36" stroke="hsl(37.30000000000001, 97.5%, 68.6%)" stroke-width="1.5"></path>
        <path d="M231.3 503.46L65.47 547.98" stroke="hsl(37.30000000000001, 97.5%, 68.6%)" stroke-width="1.5"></path>
        <path d="M231.3 503.46L409.57 530.79" stroke="hsl(37.30000000000001, 97.5%, 68.6%)" stroke-width="1.5"></path>
        <path d="M231.3 503.46L104.44 667.5" stroke="hsl(37.30000000000001, 97.5%, 68.6%)" stroke-width="1.5"></path>
        <path d="M231.3 503.46L410.23 695.58" stroke="hsl(37.30000000000001, 97.5%, 68.6%)" stroke-width="1.5"></path>
        <path d="M674.36 551.38L674.36 551.38" stroke="hsl(37.30000000000001, 97.5%, 68.6%)" stroke-width="1.5"></path>
        <path d="M674.36 551.38L560.11 520.6" stroke="hsl(37.30000000000001, 97.5%, 68.6%)" stroke-width="1.5"></path>
        <path d="M674.36 551.38L711.33 688.59" stroke="hsl(37.30000000000001, 97.5%, 68.6%)" stroke-width="1.5"></path>
        <path d="M674.36 551.38L700.29 388.46" stroke="hsl(37.30000000000001, 97.5%, 68.6%)" stroke-width="1.5"></path>
        <path d="M674.36 551.38L860.97 556.54" stroke="hsl(37.30000000000001, 97.5%, 68.6%)" stroke-width="1.5"></path>
        <path d="M674.36 551.38L555.22 710.18" stroke="hsl(37.30000000000001, 97.5%, 68.6%)" stroke-width="1.5"></path>
        <path d="M711.33 688.59L711.33 688.59" stroke="hsl(37.30000000000001, 97.5%, 68.6%)" stroke-width="1.5"></path>
        <path d="M711.33 688.59L827.3 696.57" stroke="hsl(37.30000000000001, 97.5%, 68.6%)" stroke-width="1.5"></path>
        <path d="M711.33 688.59L555.22 710.18" stroke="hsl(37.30000000000001, 97.5%, 68.6%)" stroke-width="1.5"></path>
        <path d="M827.3 696.57L827.3 696.57" stroke="hsl(37.30000000000001, 97.5%, 68.6%)" stroke-width="1.5"></path>
        <path d="M827.3 696.57L957.27 699.33" stroke="hsl(37.30000000000001, 97.5%, 68.6%)" stroke-width="1.5"></path>
        <path d="M827.3 696.57L860.97 556.54" stroke="hsl(37.30000000000001, 97.5%, 68.6%)" stroke-width="1.5"></path>
        <path d="M827.3 696.57L674.36 551.38" stroke="hsl(37.30000000000001, 97.5%, 68.6%)" stroke-width="1.5"></path>
        <path d="M827.3 696.57L972.86 491.31" stroke="hsl(37.30000000000001, 97.5%, 68.6%)" stroke-width="1.5"></path>
        <path d="M827.3 696.57L555.22 710.18" stroke="hsl(37.30000000000001, 97.5%, 68.6%)" stroke-width="1.5"></path>
        <path d="M1004.45 363.03L1004.45 363.03" stroke="hsl(37.30000000000001, 97.5%, 68.6%)" stroke-width="1.5"></path>
        <path d="M1004.45 363.03L1115.55 349.99" stroke="hsl(37.30000000000001, 97.5%, 68.6%)" stroke-width="1.5"></path>
        <path d="M1004.45 363.03L972.86 491.31" stroke="hsl(37.30000000000001, 97.5%, 68.6%)" stroke-width="1.5"></path>
        <path d="M1004.45 363.03L856.2 340.59" stroke="hsl(37.30000000000001, 97.5%, 68.6%)" stroke-width="1.5"></path>
        <path d="M957.27 699.33L957.27 699.33" stroke="hsl(37.30000000000001, 97.5%, 68.6%)" stroke-width="1.5"></path>
        <path d="M957.27 699.33L1107.83 683.04" stroke="hsl(37.30000000000001, 97.5%, 68.6%)" stroke-width="1.5"></path>
        <path d="M957.27 699.33L860.97 556.54" stroke="hsl(37.30000000000001, 97.5%, 68.6%)" stroke-width="1.5"></path>
        <path d="M957.27 699.33L972.86 491.31" stroke="hsl(37.30000000000001, 97.5%, 68.6%)" stroke-width="1.5"></path>
        <path d="M1132.74 207.36L1132.74 207.36" stroke="hsl(37.30000000000001, 97.5%, 68.6%)" stroke-width="1.5"></path>
        <path d="M1132.74 207.36L1115.55 349.99" stroke="hsl(37.30000000000001, 97.5%, 68.6%)" stroke-width="1.5"></path>
        <path d="M1132.74 207.36L1301.67 257.45" stroke="hsl(37.30000000000001, 97.5%, 68.6%)" stroke-width="1.5"></path>
        <path d="M1132.74 207.36L1247.34 71.67" stroke="hsl(37.30000000000001, 97.5%, 68.6%)" stroke-width="1.5"></path>
        <path d="M1132.74 207.36L1004.45 363.03" stroke="hsl(37.30000000000001, 97.5%, 68.6%)" stroke-width="1.5"></path>
        <path d="M1132.74 207.36L1394.46 51.96" stroke="hsl(37.30000000000001, 97.5%, 68.6%)" stroke-width="1.5"></path>
        <path d="M1280.61 493.77L1280.61 493.77" stroke="hsl(37.30000000000001, 97.5%, 68.6%)" stroke-width="1.5"></path>
        <path d="M1280.61 493.77L1145.01 551.49" stroke="hsl(37.30000000000001, 97.5%, 68.6%)" stroke-width="1.5"></path>
        <path d="M1280.61 493.77L1456.88 555.02" stroke="hsl(37.30000000000001, 97.5%, 68.6%)" stroke-width="1.5"></path>
        <path d="M1456.88 555.02L1456.88 555.02" stroke="hsl(37.30000000000001, 97.5%, 68.6%)" stroke-width="1.5"></path>
        <path d="M1456.88 555.02L1433.49 699.81" stroke="hsl(37.30000000000001, 97.5%, 68.6%)" stroke-width="1.5"></path>
        <path d="M1456.88 555.02L1590.79 493.53" stroke="hsl(37.30000000000001, 97.5%, 68.6%)" stroke-width="1.5"></path>
        <path d="M1456.88 555.02L1451.11 352.36" stroke="hsl(37.30000000000001, 97.5%, 68.6%)" stroke-width="1.5"></path>
        <path d="M1580.07 256.22L1580.07 256.22" stroke="hsl(37.30000000000001, 97.5%, 68.6%)" stroke-width="1.5"></path>
        <path d="M1580.07 256.22L1576.05 344.28" stroke="hsl(37.30000000000001, 97.5%, 68.6%)" stroke-width="1.5"></path>
        <path d="M-86.65 531.69L-86.65 531.69" stroke="hsl(37.30000000000001, 97.5%, 68.6%)" stroke-width="1.5"></path>
        <path d="M-86.65 531.69L-101.25 671.4" stroke="hsl(37.30000000000001, 97.5%, 68.6%)" stroke-width="1.5"></path>
        <path d="M-86.65 531.69L65.47 547.98" stroke="hsl(37.30000000000001, 97.5%, 68.6%)" stroke-width="1.5"></path>
        <path d="M-86.65 531.69L104.44 667.5" stroke="hsl(37.30000000000001, 97.5%, 68.6%)" stroke-width="1.5"></path>
        <path d="M-86.65 531.69L231.3 503.46" stroke="hsl(37.30000000000001, 97.5%, 68.6%)" stroke-width="1.5"></path>
        <path d="M-86.65 531.69L252.14 641.36" stroke="hsl(37.30000000000001, 97.5%, 68.6%)" stroke-width="1.5"></path>
        <path d="M-86.65 531.69L409.57 530.79" stroke="hsl(37.30000000000001, 97.5%, 68.6%)" stroke-width="1.5"></path>
        <path d="M-101.25 671.4L-101.25 671.4" stroke="hsl(37.30000000000001, 97.5%, 68.6%)" stroke-width="1.5"></path>
        <path d="M-101.25 671.4L104.44 667.5" stroke="hsl(37.30000000000001, 97.5%, 68.6%)" stroke-width="1.5"></path>
        <path d="M-101.25 671.4L65.47 547.98" stroke="hsl(37.30000000000001, 97.5%, 68.6%)" stroke-width="1.5"></path>
        <path d="M-101.25 671.4L252.14 641.36" stroke="hsl(37.30000000000001, 97.5%, 68.6%)" stroke-width="1.5"></path>
        <path d="M65.47 547.98L65.47 547.98" stroke="hsl(37.30000000000001, 97.5%, 68.6%)" stroke-width="1.5"></path>
        <path d="M65.47 547.98L104.44 667.5" stroke="hsl(37.30000000000001, 97.5%, 68.6%)" stroke-width="1.5"></path>
        <path d="M65.47 547.98L252.14 641.36" stroke="hsl(37.30000000000001, 97.5%, 68.6%)" stroke-width="1.5"></path>
        <path d="M104.44 667.5L104.44 667.5" stroke="hsl(37.30000000000001, 97.5%, 68.6%)" stroke-width="1.5"></path>
        <path d="M104.44 667.5L252.14 641.36" stroke="hsl(37.30000000000001, 97.5%, 68.6%)" stroke-width="1.5"></path>
        <path d="M252.14 641.36L252.14 641.36" stroke="hsl(37.30000000000001, 97.5%, 68.6%)" stroke-width="1.5"></path>
        <path d="M252.14 641.36L410.23 695.58" stroke="hsl(37.30000000000001, 97.5%, 68.6%)" stroke-width="1.5"></path>
        <path d="M409.57 530.79L409.57 530.79" stroke="hsl(37.30000000000001, 97.5%, 68.6%)" stroke-width="1.5"></path>
        <path d="M409.57 530.79L560.11 520.6" stroke="hsl(37.30000000000001, 97.5%, 68.6%)" stroke-width="1.5"></path>
        <path d="M409.57 530.79L410.23 695.58" stroke="hsl(37.30000000000001, 97.5%, 68.6%)" stroke-width="1.5"></path>
        <path d="M409.57 530.79L252.14 641.36" stroke="hsl(37.30000000000001, 97.5%, 68.6%)" stroke-width="1.5"></path>
        <path d="M409.57 530.79L555.22 710.18" stroke="hsl(37.30000000000001, 97.5%, 68.6%)" stroke-width="1.5"></path>
        <path d="M410.23 695.58L410.23 695.58" stroke="hsl(37.30000000000001, 97.5%, 68.6%)" stroke-width="1.5"></path>
        <path d="M410.23 695.58L555.22 710.18" stroke="hsl(37.30000000000001, 97.5%, 68.6%)" stroke-width="1.5"></path>
        <path d="M560.11 520.6L560.11 520.6" stroke="hsl(37.30000000000001, 97.5%, 68.6%)" stroke-width="1.5"></path>
        <path d="M560.11 520.6L555.22 710.18" stroke="hsl(37.30000000000001, 97.5%, 68.6%)" stroke-width="1.5"></path>
        <path d="M560.11 520.6L700.29 388.46" stroke="hsl(37.30000000000001, 97.5%, 68.6%)" stroke-width="1.5"></path>
        <path d="M555.22 710.18L555.22 710.18" stroke="hsl(37.30000000000001, 97.5%, 68.6%)" stroke-width="1.5"></path>
        <path d="M700.29 388.46L700.29 388.46" stroke="hsl(37.30000000000001, 97.5%, 68.6%)" stroke-width="1.5"></path>
        <path d="M700.29 388.46L856.2 340.59" stroke="hsl(37.30000000000001, 97.5%, 68.6%)" stroke-width="1.5"></path>
        <path d="M700.29 388.46L860.97 556.54" stroke="hsl(37.30000000000001, 97.5%, 68.6%)" stroke-width="1.5"></path>
        <path d="M700.29 388.46L972.86 491.31" stroke="hsl(37.30000000000001, 97.5%, 68.6%)" stroke-width="1.5"></path>
        <path d="M856.2 340.59L856.2 340.59" stroke="hsl(37.30000000000001, 97.5%, 68.6%)" stroke-width="1.5"></path>
        <path d="M856.2 340.59L972.86 491.31" stroke="hsl(37.30000000000001, 97.5%, 68.6%)" stroke-width="1.5"></path>
        <path d="M856.2 340.59L860.97 556.54" stroke="hsl(37.30000000000001, 97.5%, 68.6%)" stroke-width="1.5"></path>
        <path d="M856.2 340.59L1115.55 349.99" stroke="hsl(37.30000000000001, 97.5%, 68.6%)" stroke-width="1.5"></path>
        <path d="M860.97 556.54L860.97 556.54" stroke="hsl(37.30000000000001, 97.5%, 68.6%)" stroke-width="1.5"></path>
        <path d="M860.97 556.54L972.86 491.31" stroke="hsl(37.30000000000001, 97.5%, 68.6%)" stroke-width="1.5"></path>
        <path d="M860.97 556.54L711.33 688.59" stroke="hsl(37.30000000000001, 97.5%, 68.6%)" stroke-width="1.5"></path>
        <path d="M972.86 491.31L972.86 491.31" stroke="hsl(37.30000000000001, 97.5%, 68.6%)" stroke-width="1.5"></path>
        <path d="M972.86 491.31L1145.01 551.49" stroke="hsl(37.30000000000001, 97.5%, 68.6%)" stroke-width="1.5"></path>
        <path d="M1115.55 349.99L1115.55 349.99" stroke="hsl(37.30000000000001, 97.5%, 68.6%)" stroke-width="1.5"></path>
        <path d="M1145.01 551.49L1145.01 551.49" stroke="hsl(37.30000000000001, 97.5%, 68.6%)" stroke-width="1.5"></path>
        <path d="M1145.01 551.49L1107.83 683.04" stroke="hsl(37.30000000000001, 97.5%, 68.6%)" stroke-width="1.5"></path>
        <path d="M1145.01 551.49L1115.55 349.99" stroke="hsl(37.30000000000001, 97.5%, 68.6%)" stroke-width="1.5"></path>
        <path d="M1107.83 683.04L1107.83 683.04" stroke="hsl(37.30000000000001, 97.5%, 68.6%)" stroke-width="1.5"></path>
        <path d="M1107.83 683.04L1308.71 703" stroke="hsl(37.30000000000001, 97.5%, 68.6%)" stroke-width="1.5"></path>
        <path d="M1107.83 683.04L972.86 491.31" stroke="hsl(37.30000000000001, 97.5%, 68.6%)" stroke-width="1.5"></path>
        <path d="M1107.83 683.04L1280.61 493.77" stroke="hsl(37.30000000000001, 97.5%, 68.6%)" stroke-width="1.5"></path>
        <path d="M1298.13 -66.24L1298.13 -66.24" stroke="hsl(37.30000000000001, 97.5%, 68.6%)" stroke-width="1.5"></path>
        <path d="M1298.13 -66.24L1247.34 71.67" stroke="hsl(37.30000000000001, 97.5%, 68.6%)" stroke-width="1.5"></path>
        <path d="M1298.13 -66.24L1394.46 51.96" stroke="hsl(37.30000000000001, 97.5%, 68.6%)" stroke-width="1.5"></path>
        <path d="M1247.34 71.67L1247.34 71.67" stroke="hsl(37.30000000000001, 97.5%, 68.6%)" stroke-width="1.5"></path>
        <path d="M1247.34 71.67L1394.46 51.96" stroke="hsl(37.30000000000001, 97.5%, 68.6%)" stroke-width="1.5"></path>
        <path d="M1301.67 257.45L1301.67 257.45" stroke="hsl(37.30000000000001, 97.5%, 68.6%)" stroke-width="1.5"></path>
        <path d="M1301.67 257.45L1451.11 352.36" stroke="hsl(37.30000000000001, 97.5%, 68.6%)" stroke-width="1.5"></path>
        <path d="M1301.67 257.45L1247.34 71.67" stroke="hsl(37.30000000000001, 97.5%, 68.6%)" stroke-width="1.5"></path>
        <path d="M1301.67 257.45L1115.55 349.99" stroke="hsl(37.30000000000001, 97.5%, 68.6%)" stroke-width="1.5"></path>
        <path d="M1308.71 703L1308.71 703" stroke="hsl(37.30000000000001, 97.5%, 68.6%)" stroke-width="1.5"></path>
        <path d="M1308.71 703L1433.49 699.81" stroke="hsl(37.30000000000001, 97.5%, 68.6%)" stroke-width="1.5"></path>
        <path d="M1308.71 703L1456.88 555.02" stroke="hsl(37.30000000000001, 97.5%, 68.6%)" stroke-width="1.5"></path>
        <path d="M1308.71 703L1280.61 493.77" stroke="hsl(37.30000000000001, 97.5%, 68.6%)" stroke-width="1.5"></path>
        <path d="M1308.71 703L1145.01 551.49" stroke="hsl(37.30000000000001, 97.5%, 68.6%)" stroke-width="1.5"></path>
        <path d="M1308.71 703L1590.79 493.53" stroke="hsl(37.30000000000001, 97.5%, 68.6%)" stroke-width="1.5"></path>
        <path d="M1394.46 51.96L1394.46 51.96" stroke="hsl(37.30000000000001, 97.5%, 68.6%)" stroke-width="1.5"></path>
        <path d="M1394.46 51.96L1568.44 46.45" stroke="hsl(37.30000000000001, 97.5%, 68.6%)" stroke-width="1.5"></path>
        <path d="M1394.46 51.96L1558.53 -52.66" stroke="hsl(37.30000000000001, 97.5%, 68.6%)" stroke-width="1.5"></path>
        <path d="M1394.46 51.96L1301.67 257.45" stroke="hsl(37.30000000000001, 97.5%, 68.6%)" stroke-width="1.5"></path>
        <path d="M1451.11 352.36L1451.11 352.36" stroke="hsl(37.30000000000001, 97.5%, 68.6%)" stroke-width="1.5"></path>
        <path d="M1451.11 352.36L1576.05 344.28" stroke="hsl(37.30000000000001, 97.5%, 68.6%)" stroke-width="1.5"></path>
        <path d="M1451.11 352.36L1580.07 256.22" stroke="hsl(37.30000000000001, 97.5%, 68.6%)" stroke-width="1.5"></path>
        <path d="M1451.11 352.36L1590.79 493.53" stroke="hsl(37.30000000000001, 97.5%, 68.6%)" stroke-width="1.5"></path>
        <path d="M1433.49 699.81L1433.49 699.81" stroke="hsl(37.30000000000001, 97.5%, 68.6%)" stroke-width="1.5"></path>
        <path d="M1433.49 699.81L1280.61 493.77" stroke="hsl(37.30000000000001, 97.5%, 68.6%)" stroke-width="1.5"></path>
        <path d="M1433.49 699.81L1590.79 493.53" stroke="hsl(37.30000000000001, 97.5%, 68.6%)" stroke-width="1.5"></path>
        <path d="M1433.49 699.81L1145.01 551.49" stroke="hsl(37.30000000000001, 97.5%, 68.6%)" stroke-width="1.5"></path>
        <path d="M1433.49 699.81L1107.83 683.04" stroke="hsl(37.30000000000001, 97.5%, 68.6%)" stroke-width="1.5"></path>
        <path d="M1558.53 -52.66L1558.53 -52.66" stroke="hsl(37.30000000000001, 97.5%, 68.6%)" stroke-width="1.5"></path>
        <path d="M1558.53 -52.66L1568.44 46.45" stroke="hsl(37.30000000000001, 97.5%, 68.6%)" stroke-width="1.5"></path>
        <path d="M1558.53 -52.66L1298.13 -66.24" stroke="hsl(37.30000000000001, 97.5%, 68.6%)" stroke-width="1.5"></path>
        <path d="M1558.53 -52.66L1580.07 256.22" stroke="hsl(37.30000000000001, 97.5%, 68.6%)" stroke-width="1.5"></path>
        <path d="M1558.53 -52.66L1247.34 71.67" stroke="hsl(37.30000000000001, 97.5%, 68.6%)" stroke-width="1.5"></path>
        <path d="M1558.53 -52.66L1576.05 344.28" stroke="hsl(37.30000000000001, 97.5%, 68.6%)" stroke-width="1.5"></path>
        <path d="M1568.44 46.45L1568.44 46.45" stroke="hsl(37.30000000000001, 97.5%, 68.6%)" stroke-width="1.5"></path>
        <path d="M1568.44 46.45L1580.07 256.22" stroke="hsl(37.30000000000001, 97.5%, 68.6%)" stroke-width="1.5"></path>
        <path d="M1568.44 46.45L1298.13 -66.24" stroke="hsl(37.30000000000001, 97.5%, 68.6%)" stroke-width="1.5"></path>
        <path d="M1576.05 344.28L1576.05 344.28" stroke="hsl(37.30000000000001, 97.5%, 68.6%)" stroke-width="1.5"></path>
        <path d="M1576.05 344.28L1590.79 493.53" stroke="hsl(37.30000000000001, 97.5%, 68.6%)" stroke-width="1.5"></path>
        <path d="M1576.05 344.28L1456.88 555.02" stroke="hsl(37.30000000000001, 97.5%, 68.6%)" stroke-width="1.5"></path>
        <path d="M1576.05 344.28L1301.67 257.45" stroke="hsl(37.30000000000001, 97.5%, 68.6%)" stroke-width="1.5"></path>
        <path d="M1590.79 493.53L1590.79 493.53" stroke="hsl(37.30000000000001, 97.5%, 68.6%)" stroke-width="1.5"></path>
        <circle r="25" cx="231.3" cy="503.46" fill="url(#SvgjsRadialGradient1446)"></circle>
        <circle r="25" cx="674.36" cy="551.38" fill="url(#SvgjsRadialGradient1446)"></circle>
        <circle r="25" cx="711.33" cy="688.59" fill="url(#SvgjsRadialGradient1446)"></circle>
        <circle r="25" cx="827.3" cy="696.57" fill="url(#SvgjsRadialGradient1446)"></circle>
        <circle r="25" cx="1004.45" cy="363.03" fill="url(#SvgjsRadialGradient1446)"></circle>
        <circle r="25" cx="957.27" cy="699.33" fill="url(#SvgjsRadialGradient1446)"></circle>
        <circle r="25" cx="1132.74" cy="207.36" fill="url(#SvgjsRadialGradient1446)"></circle>
        <circle r="25" cx="1280.61" cy="493.77" fill="url(#SvgjsRadialGradient1446)"></circle>
        <circle r="25" cx="1456.88" cy="555.02" fill="url(#SvgjsRadialGradient1446)"></circle>
        <circle r="25" cx="1580.07" cy="256.22" fill="url(#SvgjsRadialGradient1446)"></circle>
        <circle r="5" cx="-86.65" cy="531.69" fill="#fed188"></circle>
        <circle r="5" cx="-101.25" cy="671.4" fill="#fed188"></circle>
        <circle r="5" cx="65.47" cy="547.98" fill="#fed188"></circle>
        <circle r="5" cx="104.44" cy="667.5" fill="#fed188"></circle>
        <circle r="5" cx="252.14" cy="641.36" fill="#fed188"></circle>
        <circle r="5" cx="409.57" cy="530.79" fill="#fed188"></circle>
        <circle r="5" cx="410.23" cy="695.58" fill="#fed188"></circle>
        <circle r="5" cx="560.11" cy="520.6" fill="#fed188"></circle>
        <circle r="5" cx="555.22" cy="710.18" fill="#fed188"></circle>
        <circle r="5" cx="700.29" cy="388.46" fill="#fed188"></circle>
        <circle r="5" cx="856.2" cy="340.59" fill="#fed188"></circle>
        <circle r="5" cx="860.97" cy="556.54" fill="#fed188"></circle>
        <circle r="5" cx="972.86" cy="491.31" fill="#fed188"></circle>
        <circle r="5" cx="1115.55" cy="349.99" fill="#fed188"></circle>
        <circle r="5" cx="1145.01" cy="551.49" fill="#fed188"></circle>
        <circle r="5" cx="1107.83" cy="683.04" fill="#fed188"></circle>
        <circle r="5" cx="1298.13" cy="-66.24" fill="#fed188"></circle>
        <circle r="5" cx="1247.34" cy="71.67" fill="#fed188"></circle>
        <circle r="5" cx="1301.67" cy="257.45" fill="#fed188"></circle>
        <circle r="5" cx="1308.71" cy="703" fill="#fed188"></circle>
        <circle r="5" cx="1394.46" cy="51.96" fill="#fed188"></circle>
        <circle r="5" cx="1451.11" cy="352.36" fill="#fed188"></circle>
        <circle r="5" cx="1433.49" cy="699.81" fill="#fed188"></circle>
        <circle r="5" cx="1558.53" cy="-52.66" fill="#fed188"></circle>
        <circle r="5" cx="1568.44" cy="46.45" fill="#fed188"></circle>
        <circle r="5" cx="1576.05" cy="344.28" fill="#fed188"></circle>
        <circle r="5" cx="1590.79" cy="493.53" fill="#fed188"></circle>
    </g>
    <defs>
        <mask id="SvgjsMask1444">
            <rect width="1440" height="560" fill="#ffffff"></rect>
        </mask>
        <linearGradient x1="50%" y1="0%" x2="50%" y2="100%" gradientUnits="userSpaceOnUse" id="SvgjsLinearGradient1445">
            <stop stop-color="rgba(169, 188, 208, 0.49)" offset="0"></stop>
            <stop stop-color="rgba(88, 164, 176, 1)" offset="0.76"></stop>
        </linearGradient>
        <radialGradient id="SvgjsRadialGradient1446">
            <stop stop-color="#ffffff" offset="0.1"></stop>
            <stop stop-color="rgba(252, 163, 17, 1)" offset="0.2"></stop>
            <stop stop-color="rgba(252, 163, 17, 0)" offset="1"></stop>
        </radialGradient>
    </defs>
</svg>
