<svg xmlns="http://www.w3.org/2000/svg" version="1.1" xmlns:xlink="http://www.w3.org/1999/xlink" xmlns:svgjs="http://svgjs.com/svgjs" width="1178" height="231" preserveAspectRatio="none" viewBox="0 0 1178 231">
    <g mask="url(&quot;#SvgjsMask1186&quot;)" fill="none">
        <g transform="translate(0, 11.55)" stroke-linecap="round">
            <path d="M333 103.19 L333 127.81" stroke-width="12" stroke="rgba(3, 64, 120, 1)"></path>
            <path d="M349 69.72999999999999 L349 81.72999999999999" stroke-width="12" stroke="rgba(169, 188, 208, 1)"></path>
            <path d="M349 99.72999999999999 L349 123.72999999999999" stroke-width="12" stroke="rgba(169, 188, 208, 1)"></path>
            <path d="M349 141.73 L349 161.28" stroke-width="12" stroke="rgba(169, 188, 208, 1)"></path>
            <path d="M365 75.54 L365 87.54" stroke-width="12" stroke="rgba(3, 64, 120, 1)"></path>
            <path d="M365 105.54 L365 117.54" stroke-width="12" stroke="rgba(3, 64, 120, 1)"></path>
            <path d="M365 135.54000000000002 L365 155.46" stroke-width="12" stroke="rgba(169, 188, 208, 1)"></path>
            <path d="M381 115.92 L381 115.08" stroke-width="12" stroke="rgba(169, 188, 208, 1)"></path>
            <path d="M397 70.91 L397 82.91" stroke-width="12" stroke="rgba(112, 162, 136, 1)"></path>
            <path d="M397 100.91 L397 112.91" stroke-width="12" stroke="rgba(3, 64, 120, 1)"></path>
            <path d="M397 130.91 L397 160.09" stroke-width="12" stroke="rgba(3, 64, 120, 1)"></path>
            <path d="M413 70.37 L413 82.37" stroke-width="12" stroke="rgba(112, 162, 136, 1)"></path>
            <path d="M413 100.37 L413 112.37" stroke-width="12" stroke="rgba(3, 64, 120, 1)"></path>
            <path d="M413 130.37 L413 160.63" stroke-width="12" stroke="rgba(3, 64, 120, 1)"></path>
            <path d="M429 79.16 L429 115.16" stroke-width="12" stroke="rgba(112, 162, 136, 1)"></path>
            <path d="M429 133.16 L429 151.84" stroke-width="12" stroke="rgba(112, 162, 136, 1)"></path>
            <path d="M445 114.77 L445 116.23" stroke-width="12" stroke="rgba(3, 64, 120, 1)"></path>
            <path d="M461 100.53 L461 130.47" stroke-width="12" stroke="rgba(3, 64, 120, 1)"></path>
            <path d="M477 110.78 L477 120.22" stroke-width="12" stroke="rgba(169, 188, 208, 1)"></path>
            <path d="M493 83.52 L493 95.52" stroke-width="12" stroke="rgba(3, 64, 120, 1)"></path>
            <path d="M493 113.52 L493 147.48" stroke-width="12" stroke="rgba(3, 64, 120, 1)"></path>
            <path d="M509 85.5 L509 97.5" stroke-width="12" stroke="rgba(169, 188, 208, 1)"></path>
            <path d="M509 115.5 L509 145.5" stroke-width="12" stroke="rgba(112, 162, 136, 1)"></path>
            <path d="M525 81.38 L525 149.62" stroke-width="12" stroke="rgba(169, 188, 208, 1)"></path>
            <path d="M541 103.48 L541 127.50999999999999" stroke-width="12" stroke="rgba(169, 188, 208, 1)"></path>
            <path d="M557 89.8 L557 141.2" stroke-width="12" stroke="rgba(112, 162, 136, 1)"></path>
            <path d="M573 110.74 L573 120.26" stroke-width="12" stroke="rgba(3, 64, 120, 1)"></path>
            <path d="M589 73.65 L589 85.65" stroke-width="12" stroke="rgba(169, 188, 208, 1)"></path>
            <path d="M589 103.65 L589 115.65" stroke-width="12" stroke="rgba(169, 188, 208, 1)"></path>
            <path d="M589 133.65 L589 157.35" stroke-width="12" stroke="rgba(112, 162, 136, 1)"></path>
            <path d="M605 86.56 L605 98.56" stroke-width="12" stroke="rgba(169, 188, 208, 1)"></path>
            <path d="M605 116.56 L605 144.44" stroke-width="12" stroke="rgba(3, 64, 120, 1)"></path>
            <path d="M621 95.38 L621 135.63" stroke-width="12" stroke="rgba(3, 64, 120, 1)"></path>
            <path d="M637 87.13 L637 99.13" stroke-width="12" stroke="rgba(3, 64, 120, 1)"></path>
            <path d="M637 117.13 L637 143.87" stroke-width="12" stroke="rgba(112, 162, 136, 1)"></path>
            <path d="M653 85.58 L653 97.58" stroke-width="12" stroke="rgba(169, 188, 208, 1)"></path>
            <path d="M653 115.58 L653 145.42" stroke-width="12" stroke="rgba(112, 162, 136, 1)"></path>
            <path d="M669 78.95 L669 152.05" stroke-width="12" stroke="rgba(169, 188, 208, 1)"></path>
            <path d="M685 109.39 L685 121.61" stroke-width="12" stroke="rgba(169, 188, 208, 1)"></path>
            <path d="M701 103.08 L701 127.91999999999999" stroke-width="12" stroke="rgba(112, 162, 136, 1)"></path>
            <path d="M717 82.26 L717 106.26" stroke-width="12" stroke="rgba(3, 64, 120, 1)"></path>
            <path d="M717 124.26 L717 148.74" stroke-width="12" stroke="rgba(3, 64, 120, 1)"></path>
            <path d="M733 103.33 L733 127.66999999999999" stroke-width="12" stroke="rgba(112, 162, 136, 1)"></path>
            <path d="M749 113.91 L749 117.09" stroke-width="12" stroke="rgba(3, 64, 120, 1)"></path>
            <path d="M765 107.36 L765 123.65" stroke-width="12" stroke="rgba(169, 188, 208, 1)"></path>
            <path d="M781 93.07 L781 137.93" stroke-width="12" stroke="rgba(112, 162, 136, 1)"></path>
            <path d="M797 112.24 L797 118.76" stroke-width="12" stroke="rgba(169, 188, 208, 1)"></path>
            <path d="M813 85.77 L813 97.77" stroke-width="12" stroke="rgba(3, 64, 120, 1)"></path>
            <path d="M813 115.77 L813 145.24" stroke-width="12" stroke="rgba(169, 188, 208, 1)"></path>
            <path d="M829 93.24 L829 137.76" stroke-width="12" stroke="rgba(169, 188, 208, 1)"></path>
            <path d="M845 78.29 L845 90.29" stroke-width="12" stroke="rgba(169, 188, 208, 1)"></path>
            <path d="M845 108.29 L845 120.29" stroke-width="12" stroke="rgba(112, 162, 136, 1)"></path>
            <path d="M845 138.29000000000002 L845 152.71" stroke-width="12" stroke="rgba(112, 162, 136, 1)"></path>
        </g>
    </g>
    <defs>
        <mask id="SvgjsMask1186">
            <rect width="1178" height="231" fill="#ffffff"></rect>
        </mask>
    </defs>
</svg>
