<svg width="1355" height="256" version="1.1" viewBox="0 0 358.51 67.733" xmlns="http://www.w3.org/2000/svg">
 <path d="m-0.31147 67.453c-15.862-15.896 0.084459-67.368 0.084459-67.368l89.621 0.11021s14.459 70.666 88.385 23.596c27.338-17.406 57.483-23.376 57.483-23.376l123 0.11021v67.239s-274.14 84.294-358.57-0.31147z" fill="none" stroke="#000" stroke-width=".26458px"/>
 <linearGradient id="myGradient" gradientTransform="rotate(90)">
      <stop offset="20%" stop-color="gold" />
      <stop offset="90%" stop-color="red" />
  </linearGradient>
 <path transform="scale(.26458)" d="m405.05 393.67c-184.57-11.44-321.66-57.753-399.98-135.12-21.718-21.454-29.482-43.428-30.905-87.463-1.3998-43.317 7.8225-106.12 23.727-161.57l2.3449-8.1758h335.87l5.0454 15.962c11.378 35.998 29.154 66.248 52.91 90.037 32.158 32.204 70.322 46.83 116.1 44.495 49.344-2.5174 95.276-19.771 164.3-61.714 56.652-34.428 109.89-57.598 181.63-79.053l24.716-7.3917 472.64-0.8276v126.06c0 118.71-0.159 126.11-2.7253 126.88-44.071 13.293-146.82 40.089-206.73 53.916-205.64 47.457-388.06 74.955-557.51 84.036-33.557 1.7984-152.02 1.7522-181.43-0.0707z" fill="url('#myGradient')" stroke-width="1.5573"/>
</svg>
