<?xml version="1.0" encoding="UTF-8"?>
<svg width="1159" height="256" version="1.1" viewBox="0 0 306.65 67.733" xmlns="http://www.w3.org/2000/svg">
 <g fill="none">
  <path d="m0.51664 68.909-0.93932-35.269s87.519 9.4853 131.2 14.863c58.427 7.193 176.89-15.406 176.89-15.406l-1.409 32.284z" stroke="#000" stroke-width=".17668px"/>
  <path transform="scale(.26458)" d="m3.2054 258.93c-0.17623-0.80911-3.804-130.37-3.6553-130.55 0.34595-0.40943 346.29 38.378 421.06 47.21 43.504 5.1385 86.49 10.153 95.526 11.144 22.386 2.4552 141.68 2.4364 178.57-0.0281 131.34-8.7733 284.46-27.967 434.25-54.433 17.66-3.1204 32.271-5.512 32.468-5.3148 0.5085 0.50852-3.7991 102.95-4.6989 111.75l-0.7448 7.2822-75.282 0.97931c-100.3 1.3047-1053.8 12.305-1067.1 12.31-5.6964 0.00207-10.392-0.15696-10.435-0.35339z" stroke-width="1.4286"/>
 </g>
</svg>
